<?xml version="1.0" encoding="iso-8859-1"?>
<!-- Generator: Adobe Illustrator 19.0.0, SVG Export Plug-In . SVG Version: 6.00 Build 0)  -->
<svg version="1.1" id="Layer_1" xmlns="http://www.w3.org/2000/svg" xmlns:xlink="http://www.w3.org/1999/xlink" x="0px" y="0px"
	 viewBox="0 0 203.22 203.22" style="enable-background:new 0 0 203.22 203.22;" xml:space="preserve">
<g>
	<g>
		<g>
			<path fill="#c6c6c6" d="M188.435,46.627h-7.309l16.155-23.079l-6.053-4.236l-19.12,27.315h-14.241l9.287-32.081l-7.099-2.053l-9.881,34.135
				H14.785C6.632,46.627,0,53.25,0,61.391v114.571c0,8.14,6.632,14.765,14.785,14.765h173.65c8.153,0,14.785-6.625,14.785-14.765
				V61.391C203.22,53.25,196.588,46.627,188.435,46.627z M155.728,54.016h11.207l-19.11,27.301L155.728,54.016z M195.831,175.963
				c0,4.067-3.318,7.375-7.395,7.375H14.785c-4.078,0-7.395-3.309-7.395-7.375V61.391c0-4.067,3.318-7.375,7.395-7.375h133.249
				l-13.328,46.042l-25.309,36.155l6.053,4.236l12.897-18.424l-10.991,37.97l7.099,2.053l17.011-58.765l34.488-49.268h12.482
				c4.077,0,7.395,3.309,7.395,7.375V175.963z"/>
			<path fill="#c6c6c6" d="M62.814,90.966c0-12.225-9.944-22.169-22.169-22.169c-12.225,0-22.169,9.944-22.169,22.169s9.944,22.169,22.169,22.169
				C52.87,113.135,62.814,103.19,62.814,90.966z M25.864,90.966c0-8.151,6.63-14.78,14.78-14.78c8.15,0,14.78,6.628,14.78,14.78
				s-6.63,14.78-14.78,14.78C32.494,105.745,25.864,99.117,25.864,90.966z"/>
			<circle fill="#c6c6c6" cx="40.644" cy="90.966" r="7.39"/>
			<path fill="#c6c6c6" d="M88.678,68.796c-12.225,0-22.169,9.944-22.169,22.169c0,12.225,9.944,22.169,22.169,22.169
				c12.225,0,22.169-9.944,22.169-22.169C110.847,78.739,100.903,68.796,88.678,68.796z M88.678,105.745
				c-8.15,0-14.78-6.628-14.78-14.78s6.63-14.78,14.78-14.78c8.15,0,14.78,6.628,14.78,14.78S96.827,105.745,88.678,105.745z"/>
			<circle fill="#c6c6c6" cx="88.678" cy="90.966" r="7.39"/>
			<circle fill="#c6c6c6" cx="55.424" cy="142.695" r="7.39"/>
			<path fill="#c6c6c6" d="M55.424,120.525c-12.225,0-22.169,9.944-22.169,22.169c0,12.225,9.944,22.169,22.169,22.169
				c12.225,0,22.169-9.944,22.169-22.169C77.593,130.469,67.649,120.525,55.424,120.525z M55.424,157.473
				c-8.15,0-14.78-6.628-14.78-14.78c0-8.151,6.63-14.78,14.78-14.78c8.15,0,14.78,6.628,14.78,14.78
				C70.203,150.846,63.573,157.473,55.424,157.473z"/>
			<circle fill="#c6c6c6" cx="162.576" cy="150.084" r="7.39"/>
			<path fill="#c6c6c6" d="M162.576,127.914c-12.225,0-22.169,9.944-22.169,22.169c0,12.225,9.944,22.169,22.169,22.169
				c12.225,0,22.169-9.944,22.169-22.169C184.746,137.859,174.801,127.914,162.576,127.914z M162.576,164.864
				c-8.15,0-14.78-6.628-14.78-14.78s6.63-14.78,14.78-14.78c8.15,0,14.78,6.628,14.78,14.78S170.726,164.864,162.576,164.864z"/>
		</g>
	</g>
</g>
<g>
</g>
<g>
</g>
<g>
</g>
<g>
</g>
<g>
</g>
<g>
</g>
<g>
</g>
<g>
</g>
<g>
</g>
<g>
</g>
<g>
</g>
<g>
</g>
<g>
</g>
<g>
</g>
<g>
</g>
</svg>
